<?xml version="1.0" encoding="UTF-8"?>
<svg xmlns="http://www.w3.org/2000/svg" xmlns:xlink="http://www.w3.org/1999/xlink" width="60pt" height="60pt" viewBox="0 0 60 60" version="1.1">
<g id="surface1">
<path style=" stroke:none;fill-rule:nonzero;fill:rgb(100%,29.019608%,32.156863%);fill-opacity:1;" d="M 39.894531 19.988281 C 39.339844 19.835938 38.765625 19.832031 38.226562 19.972656 L 36.402344 16.785156 L 34.875 17.660156 L 36.695312 20.847656 C 36.300781 21.242188 36.015625 21.738281 35.863281 22.292969 C 35.632812 23.140625 35.746094 24.027344 36.183594 24.785156 L 37.097656 26.386719 C 37.53125 27.148438 38.238281 27.695312 39.085938 27.925781 C 39.371094 28.003906 39.664062 28.042969 39.953125 28.042969 C 40.222656 28.042969 40.492188 28.007812 40.757812 27.941406 L 41.113281 28.566406 C 40.105469 29.589844 39.851562 31.199219 40.597656 32.507812 L 41.515625 34.109375 C 41.949219 34.867188 42.65625 35.414062 43.503906 35.644531 C 43.789062 35.722656 44.082031 35.761719 44.371094 35.761719 C 44.640625 35.761719 44.910156 35.726562 45.171875 35.660156 L 47.011719 38.871094 L 48.539062 37.996094 L 46.699219 34.785156 C 47.710938 33.765625 47.964844 32.152344 47.214844 30.847656 L 46.300781 29.246094 C 45.550781 27.9375 44.035156 27.339844 42.640625 27.691406 L 42.285156 27.066406 C 42.679688 26.667969 42.964844 26.175781 43.117188 25.617188 C 43.347656 24.773438 43.234375 23.886719 42.796875 23.125 L 41.882812 21.527344 C 41.449219 20.765625 40.742188 20.21875 39.894531 19.988281 Z M 44.773438 30.121094 L 45.6875 31.71875 C 45.941406 32.164062 45.945312 32.6875 45.746094 33.117188 L 45.234375 32.226562 L 43.707031 33.097656 L 44.21875 33.992188 C 44.132812 33.984375 44.050781 33.96875 43.964844 33.945312 C 43.570312 33.839844 43.246094 33.585938 43.042969 33.234375 L 42.128906 31.632812 C 41.871094 31.1875 41.867188 30.667969 42.070312 30.234375 L 42.59375 31.152344 L 44.121094 30.277344 L 43.597656 29.359375 C 44.070312 29.40625 44.519531 29.675781 44.773438 30.121094 Z M 40.816406 24.503906 L 39.289062 25.378906 L 39.800781 26.273438 C 39.71875 26.265625 39.632812 26.25 39.546875 26.226562 C 39.15625 26.121094 38.828125 25.867188 38.625 25.511719 L 37.710938 23.914062 C 37.507812 23.558594 37.457031 23.148438 37.5625 22.757812 C 37.585938 22.671875 37.613281 22.589844 37.652344 22.511719 L 38.175781 23.429688 L 39.703125 22.558594 L 39.179688 21.640625 C 39.652344 21.6875 40.101562 21.953125 40.355469 22.398438 L 41.269531 24 C 41.472656 24.351562 41.527344 24.761719 41.417969 25.15625 C 41.394531 25.242188 41.367188 25.320312 41.332031 25.398438 Z M 40.816406 24.503906 "/>
<path style=" stroke:none;fill-rule:nonzero;fill:rgb(100%,29.019608%,32.156863%);fill-opacity:1;" d="M 13.035156 38.871094 L 14.875 35.660156 C 15.140625 35.726562 15.410156 35.757812 15.675781 35.757812 C 16.816406 35.757812 17.925781 35.164062 18.53125 34.105469 L 19.449219 32.507812 C 19.882812 31.746094 19.996094 30.859375 19.765625 30.015625 C 19.613281 29.457031 19.328125 28.964844 18.933594 28.566406 L 19.292969 27.941406 C 19.554688 28.007812 19.824219 28.039062 20.09375 28.039062 C 21.234375 28.039062 22.34375 27.445312 22.949219 26.386719 L 23.863281 24.785156 C 24.613281 23.480469 24.359375 21.871094 23.347656 20.847656 L 25.171875 17.660156 L 23.644531 16.785156 L 21.820312 19.972656 C 20.429688 19.621094 18.910156 20.21875 18.164062 21.527344 L 17.25 23.125 C 16.5 24.433594 16.753906 26.042969 17.765625 27.066406 L 17.40625 27.691406 C 16.863281 27.554688 16.289062 27.558594 15.734375 27.707031 C 14.886719 27.9375 14.183594 28.484375 13.746094 29.246094 L 12.832031 30.84375 C 12.082031 32.152344 12.335938 33.761719 13.347656 34.785156 L 11.507812 37.996094 Z M 18.628906 25.15625 C 18.523438 24.761719 18.574219 24.351562 18.777344 24 L 19.691406 22.398438 C 19.945312 21.953125 20.390625 21.6875 20.867188 21.640625 L 20.34375 22.558594 L 21.871094 23.429688 L 22.394531 22.515625 C 22.597656 22.945312 22.59375 23.46875 22.335938 23.914062 L 21.421875 25.511719 C 21.167969 25.957031 20.71875 26.226562 20.246094 26.273438 L 20.757812 25.378906 L 19.230469 24.503906 L 18.71875 25.398438 C 18.679688 25.320312 18.652344 25.242188 18.628906 25.15625 Z M 14.359375 31.71875 L 15.273438 30.121094 C 15.476562 29.765625 15.804688 29.511719 16.195312 29.40625 C 16.28125 29.382812 16.367188 29.367188 16.449219 29.359375 L 15.925781 30.277344 L 17.453125 31.152344 L 17.976562 30.234375 C 18.179688 30.667969 18.175781 31.1875 17.921875 31.632812 L 17.003906 33.234375 C 16.75 33.679688 16.304688 33.945312 15.828125 33.992188 L 16.339844 33.097656 L 14.8125 32.226562 L 14.300781 33.121094 C 14.097656 32.6875 14.105469 32.164062 14.359375 31.71875 Z M 14.359375 31.71875 "/>
<path style=" stroke:none;fill-rule:nonzero;fill:rgb(100%,29.019608%,32.156863%);fill-opacity:1;" d="M 38.859375 48.132812 L 42.53125 48.121094 L 42.523438 46.363281 L 38.851562 46.371094 C 38.460938 44.992188 37.191406 43.976562 35.691406 43.976562 L 35.679688 43.976562 L 33.835938 43.980469 C 32.332031 43.988281 31.0625 45.007812 30.679688 46.394531 L 29.957031 46.398438 C 29.808594 45.859375 29.519531 45.363281 29.109375 44.957031 C 28.492188 44.339844 27.667969 44.003906 26.796875 44.003906 L 26.785156 44.003906 L 24.941406 44.007812 C 24.066406 44.011719 23.242188 44.355469 22.625 44.976562 C 22.21875 45.382812 21.933594 45.878906 21.785156 46.421875 L 18.085938 46.429688 L 18.089844 48.191406 L 21.789062 48.179688 C 22.179688 49.5625 23.449219 50.574219 24.953125 50.574219 L 24.960938 50.574219 L 26.804688 50.570312 C 27.679688 50.566406 28.503906 50.222656 29.125 49.601562 C 29.53125 49.195312 29.816406 48.699219 29.964844 48.15625 L 30.683594 48.15625 C 30.835938 48.695312 31.125 49.1875 31.53125 49.59375 C 32.152344 50.210938 32.972656 50.550781 33.847656 50.550781 L 33.855469 50.550781 L 35.699219 50.542969 C 36.578125 50.542969 37.398438 50.199219 38.019531 49.578125 C 38.425781 49.167969 38.710938 48.671875 38.859375 48.132812 Z M 27.875 48.359375 C 27.589844 48.648438 27.207031 48.808594 26.800781 48.808594 L 24.957031 48.816406 L 24.953125 48.816406 C 24.441406 48.816406 23.988281 48.5625 23.710938 48.175781 L 24.742188 48.171875 L 24.734375 46.414062 L 23.703125 46.414062 C 23.753906 46.34375 23.808594 46.277344 23.871094 46.21875 C 24.160156 45.929688 24.539062 45.769531 24.949219 45.769531 L 26.789062 45.761719 L 26.796875 45.761719 C 27.199219 45.761719 27.582031 45.917969 27.871094 46.207031 C 27.933594 46.265625 27.988281 46.332031 28.039062 46.402344 L 26.980469 46.40625 L 26.984375 48.164062 L 28.042969 48.164062 C 27.992188 48.234375 27.9375 48.300781 27.875 48.359375 Z M 35.695312 48.785156 L 33.851562 48.789062 L 33.847656 48.789062 C 33.441406 48.789062 33.058594 48.632812 32.773438 48.347656 C 32.710938 48.285156 32.652344 48.21875 32.605469 48.148438 L 33.636719 48.148438 L 33.628906 46.386719 L 32.601562 46.390625 C 32.875 46 33.328125 45.742188 33.84375 45.742188 L 35.683594 45.738281 L 35.691406 45.738281 C 36.199219 45.738281 36.652344 45.988281 36.929688 46.378906 L 35.875 46.378906 L 35.878906 48.140625 L 36.9375 48.136719 C 36.886719 48.207031 36.832031 48.273438 36.769531 48.335938 C 36.484375 48.625 36.101562 48.785156 35.695312 48.785156 Z M 35.695312 48.785156 "/>
<path style=" stroke:none;fill-rule:nonzero;fill:rgb(100%,29.019608%,32.156863%);fill-opacity:1;" d="M 30.902344 24.234375 L 30.902344 14.488281 L 39.34375 9.617188 L 38.464844 8.089844 L 30.023438 12.964844 L 21.582031 8.089844 L 20.703125 9.617188 L 29.144531 14.488281 L 29.144531 24.234375 Z M 30.902344 24.234375 "/>
<path style=" stroke:none;fill-rule:nonzero;fill:rgb(100%,29.019608%,32.156863%);fill-opacity:1;" d="M 56.328125 38.949219 L 47.890625 43.824219 L 39.445312 38.957031 L 38.566406 40.480469 L 47.011719 45.351562 L 47.015625 55.097656 L 48.773438 55.097656 L 48.769531 45.351562 L 57.207031 40.472656 Z M 56.328125 38.949219 "/>
<path style=" stroke:none;fill-rule:nonzero;fill:rgb(100%,29.019608%,32.156863%);fill-opacity:1;" d="M 12.988281 55.035156 L 12.988281 45.289062 L 21.429688 40.414062 L 20.546875 38.890625 L 12.109375 43.761719 L 3.667969 38.890625 L 2.785156 40.414062 L 11.226562 45.289062 L 11.226562 55.035156 Z M 12.988281 55.035156 "/>
<path style=" stroke:none;fill-rule:nonzero;fill:rgb(100%,29.019608%,32.156863%);fill-opacity:1;" d="M 19.675781 8.007812 L 30.023438 2.03125 L 40.371094 8.007812 L 40.371094 18.957031 L 42.128906 18.957031 L 42.128906 6.988281 L 30.023438 0 L 17.917969 6.988281 L 17.917969 18.957031 L 19.675781 18.957031 Z M 19.675781 8.007812 "/>
<path style=" stroke:none;fill-rule:nonzero;fill:rgb(100%,29.019608%,32.156863%);fill-opacity:1;" d="M 30.023438 27.960938 L 34.882812 25.152344 L 34.003906 23.628906 L 30.023438 25.929688 L 26.042969 23.628906 L 25.160156 25.152344 Z M 30.023438 27.960938 "/>
<path style=" stroke:none;fill-rule:nonzero;fill:rgb(100%,29.019608%,32.156863%);fill-opacity:1;" d="M 12.105469 56.726562 L 1.761719 50.753906 L 1.761719 38.804688 L 11.371094 33.253906 L 10.492188 31.730469 L 0 37.789062 L 0 51.769531 L 12.105469 58.757812 L 23.28125 52.308594 L 22.402344 50.785156 Z M 12.105469 56.726562 "/>
<path style=" stroke:none;fill-rule:nonzero;fill:rgb(100%,29.019608%,32.156863%);fill-opacity:1;" d="M 24.214844 42.824219 L 24.214844 37.789062 L 19.492188 35.0625 L 18.609375 36.585938 L 22.453125 38.804688 L 22.453125 42.824219 Z M 24.214844 42.824219 "/>
<path style=" stroke:none;fill-rule:nonzero;fill:rgb(100%,29.019608%,32.156863%);fill-opacity:1;" d="M 59.992188 37.84375 L 49.554688 31.824219 L 48.671875 33.347656 L 58.234375 38.863281 L 58.238281 50.808594 L 47.894531 56.789062 L 37.78125 50.957031 L 36.898438 52.480469 L 47.894531 58.820312 L 60 51.824219 Z M 59.992188 37.84375 "/>
<path style=" stroke:none;fill-rule:nonzero;fill:rgb(100%,29.019608%,32.156863%);fill-opacity:1;" d="M 40.578125 35.082031 L 35.777344 37.859375 L 35.78125 42.609375 L 37.542969 42.609375 L 37.539062 38.871094 L 41.457031 36.605469 Z M 40.578125 35.082031 "/>
<path style=" stroke:none;fill-rule:nonzero;fill:rgb(100%,29.019608%,32.156863%);fill-opacity:1;" d="M 24.5 8.621094 L 23.617188 7.097656 L 25.140625 6.214844 L 26.023438 7.738281 Z M 34.945312 8.261719 L 30.023438 5.417969 L 29.574219 5.679688 L 28.695312 4.15625 L 30.023438 3.386719 L 35.824219 6.734375 Z M 27.039062 7.148438 L 26.15625 5.628906 L 27.679688 4.746094 L 28.5625 6.269531 Z M 27.039062 7.148438 "/>
<path style=" stroke:none;fill-rule:nonzero;fill:rgb(100%,29.019608%,32.156863%);fill-opacity:1;" d="M 51.265625 53.484375 L 50.386719 51.960938 L 55.304688 49.117188 L 55.304688 48.601562 L 57.0625 48.597656 L 57.066406 50.132812 Z M 55.300781 47.425781 L 55.296875 45.667969 L 57.058594 45.664062 L 57.0625 47.425781 Z M 55.292969 44.496094 L 55.289062 42.734375 L 57.050781 42.730469 L 57.054688 44.492188 Z M 55.292969 44.496094 "/>
<path style=" stroke:none;fill-rule:nonzero;fill:rgb(100%,29.019608%,32.156863%);fill-opacity:1;" d="M 9.351562 53.765625 L 2.933594 50.078125 L 2.933594 48.234375 L 4.691406 48.234375 L 4.691406 49.058594 L 10.226562 52.242188 Z M 2.933594 47.0625 L 2.933594 45.300781 L 4.691406 45.300781 L 4.691406 47.0625 Z M 4.691406 44.128906 L 2.933594 44.128906 L 2.933594 42.371094 L 4.691406 42.371094 Z M 4.691406 44.128906 "/>
</g>
</svg>
