<?xml version="1.0" encoding="UTF-8"?>
<svg xmlns="http://www.w3.org/2000/svg" xmlns:xlink="http://www.w3.org/1999/xlink" width="60pt" height="60pt" viewBox="0 0 60 60" version="1.1">
<g id="surface1">
<path style=" stroke:none;fill-rule:nonzero;fill:rgb(100%,29.019608%,32.156863%);fill-opacity:1;" d="M 54.738281 26.109375 C 52.90625 26.105469 51.324219 27.386719 50.941406 29.179688 L 45.746094 29.179688 C 45.554688 25.546875 44.109375 22.09375 41.65625 19.40625 L 45.339844 15.730469 C 46.984375 16.816406 49.183594 16.492188 50.441406 14.972656 C 51.699219 13.457031 51.609375 11.234375 50.234375 9.820312 C 48.859375 8.410156 46.640625 8.261719 45.089844 9.480469 C 43.539062 10.695312 43.15625 12.886719 44.199219 14.558594 L 40.488281 18.265625 C 37.785156 15.847656 34.328125 14.433594 30.703125 14.277344 L 30.703125 9.074219 C 32.652344 8.714844 34.015625 6.941406 33.867188 4.964844 C 33.714844 2.988281 32.097656 1.445312 30.117188 1.382812 C 28.136719 1.324219 26.429688 2.765625 26.15625 4.730469 C 25.886719 6.695312 27.140625 8.546875 29.0625 9.023438 L 29.0625 14.289062 C 25.472656 14.5 22.0625 15.9375 19.402344 18.363281 L 15.71875 14.679688 C 16.832031 13.039062 16.523438 10.824219 15.007812 9.546875 C 13.496094 8.269531 11.261719 8.335938 9.828125 9.707031 C 8.394531 11.078125 8.226562 13.304688 9.4375 14.875 C 10.648438 16.445312 12.84375 16.851562 14.535156 15.8125 L 18.25 19.515625 C 15.824219 22.214844 14.410156 25.671875 14.25 29.296875 L 9.078125 29.296875 C 8.726562 27.460938 7.128906 26.128906 5.261719 26.109375 C 3.871094 26.101562 2.582031 26.835938 1.882812 28.039062 C 1.1875 29.242188 1.1875 30.726562 1.882812 31.929688 C 2.582031 33.132812 3.871094 33.871094 5.261719 33.863281 C 7.042969 33.890625 8.605469 32.671875 9.019531 30.9375 L 14.261719 30.9375 C 14.464844 34.527344 15.894531 37.9375 18.320312 40.589844 L 14.660156 44.257812 C 13 43.144531 10.769531 43.457031 9.484375 44.988281 C 8.199219 46.519531 8.277344 48.773438 9.664062 50.210938 C 11.050781 51.652344 13.296875 51.8125 14.875 50.585938 C 16.453125 49.359375 16.851562 47.140625 15.800781 45.441406 L 19.484375 41.761719 C 22.160156 44.167969 25.582031 45.585938 29.179688 45.769531 L 29.179688 50.949219 C 27.242188 51.367188 25.929688 53.179688 26.140625 55.152344 C 26.351562 57.125 28.015625 58.621094 30 58.621094 C 31.984375 58.621094 33.648438 57.125 33.859375 55.152344 C 34.070312 53.179688 32.757812 51.367188 30.820312 50.949219 L 30.820312 45.769531 C 34.449219 45.582031 37.898438 44.144531 40.585938 41.699219 L 44.25 45.363281 C 43.160156 47.023438 43.496094 49.234375 45.03125 50.492188 C 46.5625 51.753906 48.796875 51.652344 50.214844 50.265625 C 51.628906 48.875 51.765625 46.640625 50.535156 45.085938 C 49.304688 43.53125 47.097656 43.15625 45.421875 44.214844 L 41.742188 40.523438 C 44.152344 37.84375 45.566406 34.417969 45.746094 30.820312 L 50.953125 30.820312 C 51.390625 32.804688 53.289062 34.117188 55.300781 33.824219 C 57.3125 33.53125 58.757812 31.730469 58.609375 29.703125 C 58.460938 27.675781 56.773438 26.105469 54.738281 26.109375 Z M 45.910156 10.921875 C 46.785156 10.046875 48.203125 10.046875 49.078125 10.921875 C 49.953125 11.796875 49.953125 13.214844 49.078125 14.089844 C 48.511719 14.660156 47.683594 14.886719 46.910156 14.679688 C 46.132812 14.472656 45.527344 13.867188 45.320312 13.089844 C 45.113281 12.316406 45.339844 11.488281 45.910156 10.921875 Z M 14.089844 14.089844 C 13.214844 14.964844 11.796875 14.964844 10.921875 14.089844 C 10.046875 13.214844 10.046875 11.796875 10.921875 10.921875 C 11.796875 10.046875 13.214844 10.046875 14.089844 10.921875 C 14.964844 11.796875 14.964844 13.214844 14.089844 14.089844 Z M 5.261719 32.238281 C 4.023438 32.238281 3.019531 31.238281 3.019531 30 C 3.019531 28.761719 4.023438 27.761719 5.261719 27.761719 C 6.496094 27.761719 7.5 28.761719 7.5 30 C 7.496094 31.234375 6.496094 32.238281 5.261719 32.238281 Z M 14.089844 49.078125 C 13.214844 49.953125 11.796875 49.953125 10.921875 49.078125 C 10.046875 48.203125 10.046875 46.785156 10.921875 45.910156 C 11.765625 45.066406 13.121094 45.03125 14.003906 45.832031 C 14.0625 45.925781 14.140625 46.003906 14.230469 46.066406 C 14.96875 46.957031 14.90625 48.261719 14.089844 49.078125 Z M 45.910156 45.910156 C 46.785156 45.035156 48.203125 45.035156 49.078125 45.910156 C 49.953125 46.785156 49.953125 48.203125 49.078125 49.078125 C 48.203125 49.953125 46.785156 49.953125 45.910156 49.078125 C 45.035156 48.203125 45.035156 46.785156 45.910156 45.910156 Z M 27.761719 5.261719 C 27.761719 4.023438 28.761719 3.019531 30 3.019531 C 31.238281 3.019531 32.238281 4.023438 32.238281 5.261719 C 32.238281 6.496094 31.238281 7.5 30 7.5 C 28.765625 7.496094 27.761719 6.496094 27.761719 5.261719 Z M 32.238281 54.738281 C 32.238281 55.957031 31.273438 56.949219 30.054688 56.980469 C 28.839844 57.011719 27.824219 56.066406 27.765625 54.851562 C 27.703125 53.640625 28.621094 52.597656 29.835938 52.507812 C 29.945312 52.53125 30.054688 52.53125 30.164062 52.507812 C 31.332031 52.597656 32.238281 53.566406 32.238281 54.738281 Z M 30 44.152344 C 22.199219 44.152344 15.875 37.828125 15.875 30.027344 C 15.875 22.222656 22.199219 15.898438 30 15.898438 C 37.800781 15.898438 44.125 22.222656 44.125 30.027344 C 44.117188 37.824219 37.796875 44.140625 30 44.152344 Z M 54.738281 32.238281 C 53.503906 32.238281 52.5 31.238281 52.5 30 C 52.5 28.761719 53.503906 27.761719 54.738281 27.761719 C 55.976562 27.761719 56.980469 28.761719 56.980469 30 C 56.976562 31.234375 55.976562 32.238281 54.738281 32.238281 Z M 54.738281 32.238281 "/>
<path style=" stroke:none;fill-rule:nonzero;fill:rgb(100%,29.019608%,32.156863%);fill-opacity:1;" d="M 39.785156 23.875 L 30.410156 18.464844 C 30.15625 18.316406 29.84375 18.316406 29.589844 18.464844 L 20.214844 23.875 C 19.960938 24.023438 19.804688 24.292969 19.804688 24.585938 L 19.804688 35.414062 C 19.804688 35.707031 19.960938 35.976562 20.214844 36.125 L 29.589844 41.535156 C 29.84375 41.683594 30.15625 41.683594 30.410156 41.535156 L 39.785156 36.125 C 40.039062 35.976562 40.195312 35.707031 40.195312 35.414062 L 40.195312 24.585938 C 40.195312 24.292969 40.039062 24.023438 39.785156 23.875 Z M 30 20.121094 L 32.953125 21.828125 L 25.21875 26.292969 L 22.265625 24.585938 Z M 29.179688 39.40625 L 21.445312 34.9375 L 21.445312 26.007812 L 29.179688 30.472656 Z M 30 29.050781 L 26.859375 27.238281 L 34.59375 22.773438 L 37.734375 24.585938 Z M 38.554688 34.9375 L 30.820312 39.40625 L 30.820312 30.472656 L 38.554688 26.007812 Z M 38.554688 34.9375 "/>
</g>
</svg>
