<?xml version="1.0" encoding="UTF-8"?>
<svg xmlns="http://www.w3.org/2000/svg" xmlns:xlink="http://www.w3.org/1999/xlink" width="75pt" height="75pt" viewBox="0 0 75 75" version="1.1">
<g id="surface1">
<path style=" stroke:none;fill-rule:nonzero;fill:rgb(100%,29.803922%,32.941176%);fill-opacity:1;" d="M 37.542969 34.023438 C 36.160156 34.023438 35.042969 35.140625 35.042969 36.523438 C 35.039062 37.519531 35.628906 38.378906 36.472656 38.78125 L 36.472656 41.820312 C 36.472656 42.410156 36.953125 42.886719 37.539062 42.886719 C 38.128906 42.886719 38.609375 42.410156 38.609375 41.820312 L 38.609375 38.78125 C 39.453125 38.378906 40.042969 37.519531 40.042969 36.523438 C 40.042969 35.140625 38.921875 34.023438 37.542969 34.023438 Z M 37.542969 34.023438 "/>
<path style=" stroke:none;fill-rule:nonzero;fill:rgb(100%,29.803922%,32.941176%);fill-opacity:1;" d="M 64.179688 16.28125 C 59.585938 14.464844 55.9375 11.113281 53.910156 6.851562 C 53.359375 5.691406 52.167969 4.945312 50.875 4.945312 L 24.125 4.945312 C 22.832031 4.945312 21.640625 5.691406 21.089844 6.851562 C 19.0625 11.113281 15.414062 14.464844 10.820312 16.28125 C 9.53125 16.792969 8.699219 18.019531 8.699219 19.410156 L 8.699219 25.917969 C 8.699219 34.445312 11.183594 42.871094 15.890625 50.28125 C 20.640625 57.761719 27.523438 64.015625 35.796875 68.363281 L 35.929688 68.4375 C 36.421875 68.695312 36.960938 68.824219 37.5 68.824219 C 38.039062 68.824219 38.578125 68.695312 39.066406 68.4375 L 39.203125 68.363281 C 47.476562 64.015625 54.359375 57.761719 59.109375 50.28125 C 63.816406 42.871094 66.300781 34.445312 66.300781 25.917969 L 66.300781 19.410156 C 66.300781 18.019531 65.46875 16.792969 64.179688 16.28125 Z M 64.167969 25.917969 C 64.167969 34.039062 61.796875 42.070312 57.308594 49.136719 C 52.757812 56.304688 46.152344 62.300781 38.210938 66.476562 L 38.074219 66.546875 C 37.714844 66.734375 37.285156 66.734375 36.925781 66.546875 L 36.789062 66.476562 C 28.847656 62.300781 22.242188 56.304688 17.691406 49.136719 C 13.203125 42.070312 10.832031 34.039062 10.832031 25.917969 L 10.832031 19.410156 C 10.832031 18.902344 11.136719 18.453125 11.605469 18.265625 C 16.703125 16.25 20.757812 12.519531 23.015625 7.769531 C 23.214844 7.347656 23.652344 7.078125 24.125 7.078125 L 50.875 7.078125 C 51.347656 7.078125 51.785156 7.347656 51.984375 7.769531 C 54.242188 12.519531 58.296875 16.25 63.394531 18.265625 C 63.863281 18.453125 64.167969 18.902344 64.167969 19.410156 Z M 64.167969 25.917969 "/>
<path style=" stroke:none;fill-rule:nonzero;fill:rgb(100%,29.803922%,32.941176%);fill-opacity:1;" d="M 69.53125 36.046875 C 68.957031 35.917969 68.386719 36.277344 68.253906 36.851562 C 65.003906 51.234375 55.105469 63.707031 41.09375 71.070312 L 37.835938 72.78125 C 37.625 72.894531 37.375 72.894531 37.164062 72.78125 L 33.910156 71.070312 C 19.875 63.695312 9.96875 51.199219 6.730469 36.792969 C 6.601562 36.21875 6.03125 35.855469 5.457031 35.984375 C 4.882812 36.117188 4.519531 36.6875 4.648438 37.261719 C 8.023438 52.28125 18.324219 65.292969 32.914062 72.960938 L 36.171875 74.671875 C 36.585938 74.890625 37.042969 75 37.5 75 C 37.957031 75 38.414062 74.890625 38.828125 74.671875 L 42.085938 72.960938 C 56.652344 65.304688 66.949219 52.316406 70.339844 37.324219 C 70.46875 36.75 70.105469 36.175781 69.53125 36.046875 Z M 69.53125 36.046875 "/>
<path style=" stroke:none;fill-rule:nonzero;fill:rgb(100%,29.803922%,32.941176%);fill-opacity:1;" d="M 69.011719 12.214844 C 63.3125 11.613281 58.832031 7.613281 58.113281 2.484375 C 57.914062 1.066406 56.699219 0 55.28125 0 L 19.71875 0 C 18.300781 0 17.085938 1.066406 16.886719 2.484375 C 16.167969 7.613281 11.6875 11.613281 5.988281 12.214844 C 4.542969 12.367188 3.453125 13.585938 3.453125 15.050781 L 3.453125 26.511719 C 3.453125 28.179688 3.539062 29.863281 3.710938 31.519531 C 3.769531 32.066406 4.230469 32.476562 4.773438 32.476562 C 4.808594 32.476562 4.84375 32.472656 4.882812 32.46875 C 5.46875 32.410156 5.894531 31.886719 5.835938 31.300781 C 5.671875 29.714844 5.589844 28.105469 5.589844 26.511719 L 5.589844 15.050781 C 5.589844 14.6875 5.863281 14.375 6.210938 14.335938 C 12.886719 13.632812 18.148438 8.878906 19 2.78125 C 19.054688 2.40625 19.355469 2.132812 19.71875 2.132812 L 55.28125 2.132812 C 55.644531 2.132812 55.949219 2.40625 56 2.78125 C 56.851562 8.878906 62.113281 13.632812 68.789062 14.335938 C 69.136719 14.375 69.410156 14.6875 69.410156 15.050781 L 69.410156 26.511719 C 69.410156 28.089844 69.328125 29.683594 69.171875 31.25 C 69.109375 31.835938 69.539062 32.359375 70.125 32.421875 C 70.710938 32.480469 71.234375 32.050781 71.292969 31.464844 C 71.460938 29.828125 71.546875 28.160156 71.546875 26.511719 L 71.546875 15.050781 C 71.546875 13.585938 70.457031 12.367188 69.011719 12.214844 Z M 69.011719 12.214844 "/>
<path style=" stroke:none;fill-rule:nonzero;fill:rgb(100%,29.803922%,32.941176%);fill-opacity:1;" d="M 49.726562 26.640625 L 47.96875 26.640625 L 47.96875 21.546875 C 47.96875 15.792969 43.292969 11.117188 37.539062 11.117188 C 31.789062 11.117188 27.113281 15.792969 27.113281 21.546875 L 27.113281 26.640625 L 25.355469 26.640625 C 23.484375 26.640625 21.960938 28.164062 21.960938 30.035156 L 21.960938 45.316406 C 21.960938 47.1875 23.484375 48.710938 25.355469 48.710938 L 49.726562 48.710938 C 51.597656 48.710938 53.121094 47.1875 53.121094 45.316406 L 53.121094 30.035156 C 53.121094 28.164062 51.597656 26.640625 49.726562 26.640625 Z M 29.246094 21.546875 C 29.246094 16.972656 32.96875 13.25 37.542969 13.25 C 42.113281 13.25 45.835938 16.972656 45.835938 21.546875 L 45.835938 26.640625 L 29.246094 26.640625 Z M 50.984375 45.316406 C 50.984375 46.011719 50.421875 46.578125 49.726562 46.578125 L 25.355469 46.578125 C 24.660156 46.578125 24.097656 46.011719 24.097656 45.316406 L 24.097656 30.035156 C 24.097656 29.339844 24.660156 28.773438 25.355469 28.773438 L 49.726562 28.773438 C 50.421875 28.773438 50.984375 29.339844 50.984375 30.035156 Z M 50.984375 45.316406 "/>
</g>
</svg>
